<svg width="251" height="45" viewBox="0 0 251 45" fill="none" xmlns="http://www.w3.org/2000/svg">
<path d="M121.925 44.1946C120.135 44.1907 118.379 43.7039 116.843 42.7857C115.307 41.8674 114.047 40.5517 113.196 38.9773C112.345 37.4028 111.935 35.628 112.008 33.8398C112.082 32.0516 112.636 30.3164 113.614 28.817L129.52 4.41285C130.93 2.25362 133.139 0.741999 135.662 0.209703C138.186 -0.322594 140.817 0.167917 142.979 1.5736C144.141 2.33412 145.14 3.31841 145.917 4.46906C146.695 5.61971 147.235 6.91366 147.507 8.27542L148.951 15.6021C149.377 17.7876 150.465 19.7889 152.069 21.3338L152.859 22.0957C154.051 23.2476 155.628 24.1465 157.545 24.7672C161.729 26.1204 164.534 29.9242 164.534 34.2313C164.534 39.7281 159.957 44.2002 154.329 44.2002C148.701 44.2002 144.124 39.7267 144.124 34.2313C144.124 33.7022 144.167 33.1739 144.253 32.6517L144.331 32.1763C144.481 31.2719 144.623 30.4163 144.688 29.5691L144.858 27.3534C144.903 26.7768 144.756 26.2015 144.442 25.7162C144.127 25.231 143.661 24.8628 143.117 24.6683C142.572 24.4739 141.979 24.4641 141.428 24.6403C140.877 24.8166 140.399 25.1691 140.069 25.6437L130.255 39.71C129.544 40.7998 128.625 41.7384 127.55 42.472C126.475 43.2057 125.266 43.7198 123.992 43.9849C123.312 44.1262 122.619 44.1965 121.925 44.1946ZM142.223 20.7089C143.109 20.7091 143.986 20.8922 144.798 21.2468C145.61 21.6014 146.341 22.1198 146.943 22.7696C147.546 23.4194 148.008 24.1866 148.301 25.0232C148.593 25.8598 148.71 26.7478 148.644 27.6316L148.473 29.8459C148.395 30.8609 148.233 31.838 148.076 32.7817L147.999 33.2472C147.947 33.5675 147.921 33.8915 147.921 34.216C147.921 37.6214 150.797 40.3922 154.332 40.3922C157.868 40.3922 160.743 37.6214 160.743 34.216C160.743 31.5598 158.987 29.2043 156.373 28.3585C153.901 27.5589 151.831 26.365 150.222 24.8077L149.432 24.0542C147.272 21.9739 145.804 19.2792 145.229 16.3361L143.784 9.00795C143.612 8.14305 143.268 7.3212 142.775 6.59035C142.281 5.8595 141.647 5.23428 140.909 4.75116C139.59 3.89299 137.984 3.59338 136.444 3.91813C134.904 4.24288 133.556 5.16543 132.696 6.48323L116.791 30.8888C116.342 31.5654 116.031 32.3243 115.877 33.1216C115.722 33.919 115.727 34.739 115.892 35.5344C116.056 36.3298 116.376 37.0848 116.833 37.7559C117.291 38.427 117.876 39.0008 118.557 39.4443C119.237 39.8878 119.999 40.1921 120.797 40.3397C121.596 40.4874 122.416 40.4754 123.21 40.3045C124.004 40.1336 124.756 39.8072 125.423 39.344C126.09 38.8808 126.659 38.2902 127.097 37.606L127.131 37.5571L136.965 23.4671C137.554 22.6177 138.341 21.9237 139.256 21.4443C140.172 20.965 141.191 20.7145 142.224 20.7145L142.223 20.7089Z" fill="#3B3B3B"/>
<path d="M172.712 14.6549H181.916V17.0124H172.712V14.6549ZM169.502 21L175.596 3.92095H179.007L185.101 21H182.543L177.076 5.67651H177.527L172.06 21H169.502ZM189.755 21H187.247V3.92095H189.755V21ZM202.578 13.1251H206.114C207.218 13.1251 208.104 12.8241 208.773 12.2222C209.442 11.6203 209.776 10.7843 209.776 9.71429C209.776 8.57735 209.442 7.72466 208.773 7.15619C208.121 6.571 207.243 6.27841 206.139 6.27841H202.578L203.03 5.70159V21H200.522V3.92095H206.566C207.736 3.92095 208.756 4.1801 209.625 4.69841C210.495 5.21672 211.172 5.91058 211.657 6.78C212.142 7.64942 212.384 8.62751 212.384 9.71429C212.384 10.7843 212.142 11.7624 211.657 12.6486C211.172 13.518 210.486 14.2119 209.6 14.7302C208.731 15.2317 207.711 15.4825 206.541 15.4825H202.578V13.1251ZM215.266 21V3.92095H221.535C222.706 3.92095 223.726 4.17175 224.595 4.67333C225.481 5.1582 226.167 5.81862 226.652 6.6546C227.136 7.49058 227.379 8.42688 227.379 9.46349C227.379 10.5001 227.136 11.4364 226.652 12.2724C226.167 13.1084 225.481 13.7688 224.595 14.2537C223.726 14.7385 222.706 14.981 221.535 14.981H217.322V12.6235H221.109C222.213 12.6235 223.099 12.3476 223.767 11.7959C224.436 11.2274 224.771 10.4499 224.771 9.46349C224.771 8.41016 224.436 7.61598 223.767 7.08095C223.099 6.54593 222.213 6.27841 221.109 6.27841H217.297L217.773 5.70159V21H215.266ZM224.796 21L220.808 13.9025H223.567L227.554 21H224.796ZM229.683 12.473C229.683 11.2023 229.901 10.032 230.335 8.9619C230.787 7.89185 231.414 6.96391 232.216 6.17809C233.019 5.39227 233.955 4.78201 235.025 4.3473C236.112 3.91259 237.291 3.69524 238.561 3.69524C239.815 3.69524 240.977 3.91259 242.047 4.3473C243.117 4.78201 244.045 5.39227 244.831 6.17809C245.634 6.96391 246.252 7.89185 246.687 8.9619C247.138 10.032 247.364 11.2023 247.364 12.473C247.364 13.727 247.138 14.889 246.687 15.959C246.252 17.0291 245.634 17.9654 244.831 18.7679C244.045 19.5538 243.117 20.164 242.047 20.5987C240.977 21.0334 239.815 21.2508 238.561 21.2508C237.291 21.2508 236.112 21.0334 235.025 20.5987C233.955 20.164 233.019 19.5538 232.216 18.7679C231.414 17.9654 230.787 17.0291 230.335 15.959C229.901 14.889 229.683 13.727 229.683 12.473ZM232.241 12.473C232.241 13.6935 232.517 14.7887 233.069 15.7584C233.621 16.7114 234.373 17.4638 235.326 18.0156C236.279 18.5673 237.358 18.8432 238.561 18.8432C239.765 18.8432 240.835 18.5673 241.772 18.0156C242.708 17.4638 243.443 16.7114 243.978 15.7584C244.53 14.7887 244.806 13.6935 244.806 12.473C244.806 11.2358 244.53 10.1406 243.978 9.18762C243.443 8.2346 242.708 7.48222 241.772 6.93048C240.835 6.37873 239.765 6.10286 238.561 6.10286C237.358 6.10286 236.279 6.37873 235.326 6.93048C234.373 7.48222 233.621 8.2346 233.069 9.18762C232.517 10.1406 232.241 11.2358 232.241 12.473Z" fill="#3B3B3B"/>
<path d="M168.851 40V25.1689H174.296C175.312 25.1689 176.198 25.3867 176.953 25.8222C177.722 26.2433 178.318 26.8168 178.739 27.5427C179.16 28.2687 179.37 29.0817 179.37 29.9819C179.37 30.8821 179.16 31.6952 178.739 32.4211C178.318 33.1471 177.722 33.7206 176.953 34.1416C176.198 34.5627 175.312 34.7732 174.296 34.7732H170.637V32.726H173.926C174.884 32.726 175.653 32.4864 176.234 32.0073C176.815 31.5137 177.105 30.8385 177.105 29.9819C177.105 29.0672 176.815 28.3776 176.234 27.913C175.653 27.4484 174.884 27.2161 173.926 27.2161H170.615L171.029 26.7152V40H168.851ZM177.127 40L173.664 33.8367H176.06L179.523 40H177.127ZM184.099 33.5754V31.5282H190.088V33.5754H184.099ZM184.033 27.2161L184.534 26.5192V38.2795L183.924 37.931H191.373V40H182.356V25.1689H191.373V27.2161H184.033ZM198.776 40.3267C198.007 40.3267 197.259 40.2105 196.533 39.9782C195.821 39.7459 195.168 39.3684 194.573 38.8457C193.978 38.3085 193.477 37.5826 193.07 36.6679L194.878 35.6443C195.386 36.559 195.945 37.2196 196.555 37.6262C197.164 38.0327 197.927 38.2359 198.841 38.2359C199.727 38.2359 200.395 38.0399 200.845 37.6479C201.31 37.2559 201.542 36.7187 201.542 36.0363C201.542 35.6298 201.44 35.2741 201.237 34.9692C201.048 34.6643 200.707 34.3812 200.213 34.1198C199.72 33.8585 199.023 33.6189 198.123 33.4011C196.99 33.1108 196.105 32.755 195.466 32.334C194.841 31.8984 194.406 31.4048 194.159 30.8531C193.912 30.2868 193.789 29.677 193.789 29.0237C193.789 28.2106 193.978 27.5064 194.355 26.9112C194.733 26.3014 195.277 25.8295 195.988 25.4956C196.7 25.1471 197.542 24.9729 198.515 24.9729C199.676 24.9729 200.635 25.1979 201.389 25.648C202.144 26.0836 202.783 26.6861 203.306 27.4556L201.477 28.6317C201.027 28.0799 200.555 27.6879 200.061 27.4556C199.582 27.2088 199.066 27.0854 198.515 27.0854C197.673 27.0854 197.027 27.2524 196.576 27.5863C196.141 27.9202 195.923 28.3994 195.923 29.0237C195.923 29.5609 196.126 30.0255 196.533 30.4175C196.954 30.8095 197.767 31.1507 198.972 31.4411C200.192 31.746 201.143 32.109 201.825 32.53C202.522 32.9365 203.008 33.4302 203.284 34.0109C203.575 34.5772 203.72 35.2596 203.72 36.0581C203.72 36.8566 203.517 37.5753 203.11 38.2142C202.703 38.853 202.13 39.3684 201.389 39.7604C200.649 40.1379 199.778 40.3267 198.776 40.3267ZM211.711 40.2178C210.593 40.2178 209.598 40 208.727 39.5644C207.871 39.1289 207.195 38.4828 206.702 37.6262C206.208 36.755 205.961 35.6879 205.961 34.4247V25.1689H208.139V34.098C208.139 35.3757 208.444 36.3703 209.054 37.0817C209.678 37.7786 210.564 38.1271 211.711 38.1271C212.872 38.1271 213.758 37.7786 214.368 37.0817C214.978 36.3703 215.282 35.3757 215.282 34.098V25.1689H217.46V34.4247C217.46 35.6879 217.213 36.755 216.72 37.6262C216.226 38.4828 215.544 39.1289 214.673 39.5644C213.816 40 212.829 40.2178 211.711 40.2178ZM219.997 40L222.719 25.1689H224.658L228.73 35.9928H228.795L232.868 25.1689H234.806L237.529 40H235.242L234.044 32.9438C233.87 31.9275 233.725 30.9257 233.608 29.9384C233.492 28.9366 233.42 27.9348 233.391 26.9329H233.935C233.674 28.138 233.398 29.1979 233.108 30.1126C232.832 31.0273 232.512 31.971 232.149 32.9438L229.601 39.7604H227.924L225.376 32.9438C225.013 31.9565 224.687 31.0128 224.396 30.1126C224.12 29.1979 223.852 28.138 223.59 26.9329H224.135C224.106 27.9348 224.033 28.9366 223.917 29.9384C223.801 30.9257 223.656 31.9275 223.481 32.9438L222.284 40H219.997ZM241.905 33.5754V31.5282H247.894V33.5754H241.905ZM241.84 27.2161L242.341 26.5192V38.2795L241.731 37.931H249.179V40H240.163V25.1689H249.179V27.2161H241.84Z" fill="#3B3B3B"/>
<path d="M2.74 24.9V23.24H6.27C7.07 23.24 7.65 23.0433 8.01 22.65C8.37667 22.25 8.56 21.6967 8.56 20.99V20.12C8.56 19.3933 8.38 18.8367 8.02 18.45C7.66 18.0633 7.08333 17.87 6.29 17.87H2.73V16.22H6.33C7.79667 16.22 8.86667 16.56 9.54 17.24C10.22 17.9133 10.56 18.8567 10.56 20.07V21.04C10.56 22.2533 10.22 23.2 9.54 23.88C8.86 24.56 7.78667 24.9 6.32 24.9H2.74ZM1.42 29V16.22H3.39V23.73L3.4 24.63V29H1.42ZM16.4709 29.25C15.0309 29.25 13.9376 28.8667 13.1909 28.1C12.4443 27.3333 12.0709 26.23 12.0709 24.79V23.4C12.0709 21.9667 12.4443 20.87 13.1909 20.11C13.9376 19.3433 15.0309 18.96 16.4709 18.96C17.9109 18.96 19.0009 19.3433 19.7409 20.11C20.4876 20.87 20.8609 21.9667 20.8609 23.4V24.79C20.8609 26.23 20.4876 27.3333 19.7409 28.1C19.0009 28.8667 17.9109 29.25 16.4709 29.25ZM16.4709 27.66C17.2643 27.66 17.8676 27.4233 18.2809 26.95C18.6943 26.4767 18.9009 25.7967 18.9009 24.91V23.28C18.9009 22.4 18.6943 21.7267 18.2809 21.26C17.8676 20.7867 17.2643 20.55 16.4709 20.55C15.6776 20.55 15.0743 20.7867 14.6609 21.26C14.2476 21.7267 14.0409 22.4 14.0409 23.28V24.91C14.0409 25.7967 14.2476 26.4767 14.6609 26.95C15.0743 27.4233 15.6776 27.66 16.4709 27.66ZM24.2448 29L21.9448 19.22H23.9648L25.6948 27.59H25.8648L27.6548 19.48H30.3948L32.1848 27.59H32.3448L34.0948 19.22H36.0948L33.7948 29H30.8548L29.3848 22.23L29.1048 20.89H28.9448L28.6748 22.23L27.2048 29H24.2448ZM41.8581 29.23C40.2981 29.23 39.1281 28.86 38.3481 28.12C37.5748 27.3733 37.1881 26.3 37.1881 24.9V23.3C37.1881 21.92 37.5481 20.8533 38.2681 20.1C38.9948 19.34 40.0515 18.96 41.4381 18.96C42.3781 18.96 43.1615 19.1333 43.7881 19.48C44.4148 19.82 44.8848 20.3033 45.1981 20.93C45.5115 21.5567 45.6681 22.3 45.6681 23.16V23.53C45.6681 23.7567 45.6581 23.9867 45.6381 24.22C45.6181 24.4533 45.5915 24.6767 45.5581 24.89H43.7581C43.7715 24.5433 43.7781 24.2167 43.7781 23.91C43.7848 23.6033 43.7881 23.3233 43.7881 23.07C43.7881 22.53 43.7015 22.0733 43.5281 21.7C43.3548 21.3267 43.0948 21.0433 42.7481 20.85C42.4015 20.65 41.9648 20.55 41.4381 20.55C40.6581 20.55 40.0781 20.7733 39.6981 21.22C39.3181 21.66 39.1281 22.29 39.1281 23.11V24.03L39.1381 24.26V25.13C39.1381 25.4967 39.1915 25.83 39.2981 26.13C39.4115 26.43 39.5881 26.69 39.8281 26.91C40.0748 27.1233 40.3915 27.29 40.7781 27.41C41.1648 27.5233 41.6348 27.58 42.1881 27.58C42.8148 27.58 43.4015 27.5 43.9481 27.34C44.5015 27.18 45.0215 26.9667 45.5081 26.7L45.3281 28.37C44.8881 28.63 44.3748 28.84 43.7881 29C43.2081 29.1533 42.5648 29.23 41.8581 29.23ZM38.2281 24.89V23.42H45.1581V24.89H38.2281ZM49.5653 23.09L49.1453 21.56H49.6253C49.832 20.7867 50.1786 20.18 50.6653 19.74C51.152 19.2933 51.8153 19.07 52.6553 19.07C52.8553 19.07 53.032 19.0867 53.1853 19.12C53.3453 19.1467 53.4886 19.18 53.6153 19.22L53.7353 21.13C53.5753 21.0767 53.3953 21.0367 53.1953 21.01C52.9953 20.9767 52.7786 20.96 52.5453 20.96C51.832 20.96 51.2153 21.1433 50.6953 21.51C50.1753 21.8767 49.7986 22.4033 49.5653 23.09ZM47.6853 29V19.22H49.5953L49.5053 22.07L49.6453 22.21V29H47.6853ZM59.28 29.23C57.72 29.23 56.55 28.86 55.77 28.12C54.9967 27.3733 54.61 26.3 54.61 24.9V23.3C54.61 21.92 54.97 20.8533 55.69 20.1C56.4167 19.34 57.4733 18.96 58.86 18.96C59.8 18.96 60.5833 19.1333 61.21 19.48C61.8367 19.82 62.3067 20.3033 62.62 20.93C62.9333 21.5567 63.09 22.3 63.09 23.16V23.53C63.09 23.7567 63.08 23.9867 63.06 24.22C63.04 24.4533 63.0133 24.6767 62.98 24.89H61.18C61.1933 24.5433 61.2 24.2167 61.2 23.91C61.2067 23.6033 61.21 23.3233 61.21 23.07C61.21 22.53 61.1233 22.0733 60.95 21.7C60.7767 21.3267 60.5167 21.0433 60.17 20.85C59.8233 20.65 59.3867 20.55 58.86 20.55C58.08 20.55 57.5 20.7733 57.12 21.22C56.74 21.66 56.55 22.29 56.55 23.11V24.03L56.56 24.26V25.13C56.56 25.4967 56.6133 25.83 56.72 26.13C56.8333 26.43 57.01 26.69 57.25 26.91C57.4967 27.1233 57.8133 27.29 58.2 27.41C58.5867 27.5233 59.0567 27.58 59.61 27.58C60.2367 27.58 60.8233 27.5 61.37 27.34C61.9233 27.18 62.4433 26.9667 62.93 26.7L62.75 28.37C62.31 28.63 61.7967 28.84 61.21 29C60.63 29.1533 59.9867 29.23 59.28 29.23ZM55.65 24.89V23.42H62.58V24.89H55.65ZM68.3367 29.22C67.1701 29.22 66.2801 28.8533 65.6667 28.12C65.0601 27.3867 64.7567 26.3167 64.7567 24.91V23.36C64.7567 21.94 65.0634 20.86 65.6767 20.12C66.2967 19.3733 67.2101 19 68.4167 19C68.9967 19 69.4934 19.0933 69.9067 19.28C70.3267 19.46 70.6667 19.7167 70.9267 20.05C71.1934 20.3833 71.3834 20.7767 71.4967 21.23H72.1467L71.5967 23.04C71.5767 22.5067 71.4601 22.06 71.2467 21.7C71.0334 21.3333 70.7401 21.0567 70.3667 20.87C69.9934 20.6833 69.5567 20.59 69.0567 20.59C68.3034 20.59 67.7267 20.8067 67.3267 21.24C66.9267 21.6733 66.7267 22.3167 66.7267 23.17V25.04C66.7267 25.8733 66.9234 26.5067 67.3167 26.94C67.7167 27.3733 68.2967 27.59 69.0567 27.59C69.5167 27.59 69.9201 27.5033 70.2667 27.33C70.6201 27.1567 70.9134 26.92 71.1467 26.62C71.3801 26.32 71.5401 25.9833 71.6267 25.61L72.0867 26.99H71.5167C71.4101 27.3967 71.2301 27.77 70.9767 28.11C70.7301 28.45 70.3934 28.72 69.9667 28.92C69.5401 29.12 68.9967 29.22 68.3367 29.22ZM71.5467 29L71.6267 26.71L71.5967 26.09V22.03L71.6067 21.65L71.5567 18.88V15.76H73.5067V29H71.5467ZM85.2363 29.22C84.6563 29.22 84.1563 29.13 83.7363 28.95C83.3163 28.7633 82.9729 28.5033 82.7063 28.17C82.4463 27.83 82.2563 27.4367 82.1363 26.99H81.4863L82.0563 25.14C82.0829 25.6867 82.2063 26.1433 82.4263 26.51C82.6463 26.87 82.9463 27.14 83.3263 27.32C83.7063 27.5 84.1396 27.59 84.6263 27.59C85.3729 27.59 85.9429 27.3733 86.3363 26.94C86.7296 26.5 86.9263 25.8467 86.9263 24.98V23.15C86.9263 22.31 86.7263 21.6733 86.3263 21.24C85.9329 20.8067 85.3596 20.59 84.6063 20.59C84.1463 20.59 83.7396 20.6767 83.3863 20.85C83.0329 21.0233 82.7396 21.26 82.5063 21.56C82.2796 21.8533 82.1196 22.19 82.0263 22.57L81.5963 21.23H82.1563C82.2696 20.8167 82.4463 20.4433 82.6863 20.11C82.9329 19.77 83.2696 19.5 83.6963 19.3C84.1229 19.1 84.6629 19 85.3163 19C86.4829 19 87.3696 19.3667 87.9763 20.1C88.5896 20.8333 88.8963 21.9033 88.8963 23.31V24.86C88.8963 26.28 88.5863 27.3633 87.9663 28.11C87.3463 28.85 86.4363 29.22 85.2363 29.22ZM80.1463 29V15.76H82.0963V18.88L82.0463 21.69L82.0563 22.03V26.09L82.0263 26.71L82.1063 29H80.1463ZM95.3831 27.27L94.3431 27.72L97.0931 19.22H99.1031L94.6531 32.44H92.6731L94.2231 27.85L95.1031 28.59H92.8931L89.8231 19.22H91.8531L94.2931 27.27H95.3831Z" fill="#3B3B3B"/>
</svg>
