<?xml version="1.0" encoding="UTF-8"?>
<svg version="1.1" xmlns="http://www.w3.org/2000/svg" width="400" height="132">
<path d="M0 0 C9.67300152 7.15421119 12.11549197 19.93186669 14.09765625 31.0703125 C15.95057033 41.84594187 15.95057033 41.84594187 21.04467773 51.35839844 C22.03515625 52.8203125 22.03515625 52.8203125 22.03515625 54.8203125 C23.35515625 55.4803125 24.67515625 56.1403125 26.03515625 56.8203125 C26.03515625 57.4803125 26.03515625 58.1403125 26.03515625 58.8203125 C27.02515625 59.1915625 27.02515625 59.1915625 28.03515625 59.5703125 C31.03622633 60.82075837 33.90436133 62.21131342 36.79296875 63.69921875 C38.35081773 64.47814324 39.93153198 65.21230126 41.52734375 65.91015625 C49.0668282 69.31323662 54.4326642 73.87064096 57.91015625 81.5078125 C60.85685748 90.18421058 60.60432271 97.39955182 57.03515625 105.8203125 C53.3450849 112.65377796 47.05592367 119.00684698 39.4921875 121.37890625 C29.35389645 123.20025265 20.65694222 122.59607203 12.03515625 116.8203125 C11.10703125 116.2221875 10.17890625 115.6240625 9.22265625 115.0078125 C3.19009466 108.97525091 -0.00911917 101.82264238 -0.15234375 93.2578125 C-0.12922395 90.73775428 0.09931543 88.45051314 0.53125 85.9609375 C1.06272176 82.64850886 1.23841808 79.48627617 1.28515625 76.1328125 C1.3109375 75.01519531 1.33671875 73.89757812 1.36328125 72.74609375 C1.23042056 69.8800255 1.23042056 69.8800255 -0.04296875 67.86328125 C-2.09146195 66.56842636 -2.09146195 66.56842636 -5.3125 66.6875 C-10.3023795 68.23516316 -11.68709611 70.65828339 -14.40234375 74.9453125 C-15.43715853 76.48981217 -16.47233504 78.03406953 -17.5078125 79.578125 C-18.05872559 80.41633789 -18.60963867 81.25455078 -19.17724609 82.11816406 C-22.45173152 87.06790521 -25.838113 91.94005085 -29.21484375 96.8203125 C-30.18828735 98.25141357 -30.18828735 98.25141357 -31.18139648 99.71142578 C-44.89446117 119.64156699 -44.89446117 119.64156699 -55.96484375 121.8203125 C-66.00637947 122.84258224 -73.58582638 121.61037929 -81.96484375 115.8203125 C-88.88431416 109.81887083 -91.50564956 102.14696515 -92.27734375 93.1953125 C-92.13197682 84.04788467 -87.16709456 75.90285667 -82.15234375 68.5703125 C-80.98928284 66.82572113 -79.82653505 65.08092097 -78.6640625 63.3359375 C-78.05868652 62.43552734 -77.45331055 61.53511719 -76.82958984 60.60742188 C-73.66295883 55.8744735 -70.56863197 51.09459944 -67.46484375 46.3203125 C-66.20465639 44.38917326 -64.94424056 42.45818309 -63.68359375 40.52734375 C-60.6596111 35.89114905 -57.64958836 31.24607633 -54.64331055 26.59838867 C-52.53560783 23.34532197 -50.41828498 20.0986518 -48.29541016 16.85546875 C-47.15265155 15.10757228 -46.01702495 13.35501664 -44.8828125 11.6015625 C-40.16650818 4.53242916 -34.59596126 -2.11526828 -26.22265625 -4.7421875 C-16.51844158 -6.62258896 -8.40205865 -5.04457597 0 0 Z M-34.0234375 17 C-36.64954595 20.81499055 -39.07951695 24.7410643 -41.49902344 28.68847656 C-45.81245177 35.68313955 -50.38675876 42.49782697 -54.96484375 49.3203125 C-61.48404416 59.0434834 -67.84545737 68.83974543 -73.96484375 78.8203125 C-74.40489746 79.5107666 -74.84495117 80.2012207 -75.29833984 80.91259766 C-75.74902832 81.62077637 -76.1997168 82.32895508 -76.6640625 83.05859375 C-77.28607544 84.02792847 -77.28607544 84.02792847 -77.9206543 85.0168457 C-80.20226208 88.95751361 -80.26766031 92.35376828 -79.96484375 96.8203125 C-77.98351585 102.03433329 -74.93109966 106.02806945 -70.109375 108.94140625 C-65.19068413 110.95726316 -59.66520877 110.37620106 -54.71484375 108.7578125 C-48.34394333 104.26922357 -44.51659771 97.76882382 -40.30078125 91.33203125 C-36.1534471 85.04196837 -31.73967317 78.93251618 -27.36621094 72.79882812 C-26.1054745 71.01886156 -24.86341279 69.22789071 -23.62890625 67.4296875 C-19.67692599 61.76669663 -16.59674469 57.61330641 -10.02734375 55.0703125 C-3.84046733 54.32038809 0.49165314 54.84324602 6.03515625 57.8203125 C9.65749285 60.87917451 11.61273751 63.32445328 13.03515625 67.8203125 C13.52784582 74.88497986 13.15282674 81.83487196 12.03515625 88.8203125 C11.56630132 94.22280004 11.94445813 98.23411529 15.03515625 102.8203125 C19.58975829 107.32219924 22.75906297 109.96332736 29.28515625 110.0703125 C35.54509293 109.99676233 38.98433678 108.54486524 43.78515625 104.5078125 C47.33758388 100.26463506 48.27573567 96.76744582 47.91015625 91.3203125 C47.2667569 86.97005555 45.99305944 84.16741347 43.03515625 80.8203125 C39.73281441 78.59482126 36.39163903 76.98698534 32.78515625 75.30078125 C20.66883322 69.56565542 11.35123617 62.81958349 6.29174805 49.92578125 C3.70520571 42.64039475 2.40670916 35.11377654 1.01757812 27.52734375 C-0.31236919 20.71835784 -1.68548178 15.07819393 -6.75390625 10.04296875 C-17.94399239 2.97178666 -26.62521547 7.06113584 -34.0234375 17 Z " fill="#FFFFFF" transform="translate(95.96484375,8.1796875)"/>
<path d="M0 0 C5.08010054 3.87316521 8.27305724 8.69681416 10.05859375 14.81640625 C11.10553047 23.2089234 11.12155389 31.27266101 6.68359375 38.76171875 C2.83219584 43.63151515 -2.038002 46.93305983 -7.94140625 48.81640625 C-17.4058334 49.78216412 -26.02924004 49.75053091 -33.94140625 43.81640625 C-39.18997041 39.0646722 -42.51201529 32.59750949 -43.14453125 25.5546875 C-43.33309115 15.79671245 -41.13804552 8.92419501 -34.30859375 1.76953125 C-24.59205274 -6.24741678 -10.56588749 -6.44157729 0 0 Z M-28.75390625 14.06640625 C-31.03581106 19.35081739 -31.46489752 23.16327592 -29.75390625 28.56640625 C-27.55700383 32.50567956 -25.61048233 34.8149606 -21.75390625 37.12890625 C-17.08657324 38.26980988 -12.35764167 38.18833653 -8.09765625 35.76953125 C-4.45552762 32.87725263 -2.26932192 30.09275108 -1.60546875 25.484375 C-1.50890852 19.35280047 -2.14348034 15.71373177 -5.94140625 10.81640625 C-13.79839276 5.15206714 -22.75972266 6.62535076 -28.75390625 14.06640625 Z " fill="#FFFFFF" transform="translate(386.94140625,17.18359375)"/>
<path d="M0 0 C28.27027027 0 28.27027027 0 34.875 5.3125 C38.49009173 9.88452777 39.42090974 14.15761386 39.25390625 19.98046875 C38.5648978 25.46073596 36.11720358 29.45068657 32 33 C33.42366186 37.9181046 35.58471634 42.23020329 37.9765625 46.73046875 C39 49 39 49 39 52 C34.85206428 52.60406831 31.1221191 52.86228002 27 52 C22.69408193 47.79194371 20.51305174 41.74959663 19 36 C16.69 36 14.38 36 12 36 C12 41.28 12 46.56 12 52 C8.04 52 4.08 52 0 52 C0 34.84 0 17.68 0 0 Z M12 11 C12 15.62 12 20.24 12 25 C18.13584927 25.3184525 18.13584927 25.3184525 24 23.875 C26.22440347 22.07359111 26.22440347 22.07359111 27.0625 19.0625 C27.29820935 15.92385706 27.29820935 15.92385706 25.25 13.6875 C22.09233876 11.31925407 19.64960806 10.87459659 15.8125 10.9375 C14.554375 10.958125 13.29625 10.97875 12 11 Z " fill="#FFFFFF" transform="translate(302,14)"/>
<path d="M0 0 C2.97 0 5.94 0 9 0 C12 8 15 16 18 24 C21.06862482 17.40813928 23.5794479 10.71094974 25.94921875 3.84375 C27 1 27 1 28 0 C29.51928038 -0.07179964 31.04167482 -0.08392007 32.5625 -0.0625 C33.38878906 -0.05347656 34.21507812 -0.04445313 35.06640625 -0.03515625 C35.70449219 -0.02355469 36.34257812 -0.01195313 37 0 C38.0040133 5.15815649 39.00069218 10.31765705 39.99072266 15.47851562 C40.32824774 17.23248108 40.66774274 18.98606868 41.00927734 20.73925781 C41.50100925 23.2652975 41.98554462 25.79262971 42.46875 28.3203125 C42.62186646 29.09867462 42.77498291 29.87703674 42.93273926 30.6789856 C43.72250835 34.85092552 44.16627108 38.7303963 44 43 C40.7 43 37.4 43 34 43 C32.68 36.07 31.36 29.14 30 22 C27.69 28.6 25.38 35.2 23 42 C20.03 42 17.06 42 14 42 C13.50628906 40.64003906 13.01257813 39.28007813 12.50390625 37.87890625 C11.85691673 36.10671756 11.20977337 34.33458503 10.5625 32.5625 C10.23701172 31.66466797 9.91152344 30.76683594 9.57617188 29.84179688 C9.26357422 28.98779297 8.95097656 28.13378906 8.62890625 27.25390625 C8.34088135 26.46314697 8.05285645 25.6723877 7.75610352 24.85766602 C7.14751082 23.01805588 7.14751082 23.01805588 6 22 C5.87153687 22.90093384 5.87153687 22.90093384 5.74047852 23.82006836 C5.35211985 26.52651658 4.95739671 29.23199836 4.5625 31.9375 C4.42779297 32.88302734 4.29308594 33.82855469 4.15429688 34.80273438 C4.02216797 35.70185547 3.89003906 36.60097656 3.75390625 37.52734375 C3.57323608 38.77632446 3.57323608 38.77632446 3.38891602 40.05053711 C3 42 3 42 2 43 C0.31391034 43.07205511 -1.37500659 43.08386068 -3.0625 43.0625 C-3.98160156 43.05347656 -4.90070313 43.04445312 -5.84765625 43.03515625 C-6.55792969 43.02355469 -7.26820313 43.01195312 -8 43 C-7.1874263 38.00034025 -6.36937608 33.00161793 -5.54638672 28.00366211 C-5.26756007 26.30566276 -4.99019362 24.60742293 -4.71435547 22.90893555 C-4.31607809 20.45816374 -3.91244059 18.00832406 -3.5078125 15.55859375 C-3.3868924 14.80726669 -3.26597229 14.05593964 -3.14138794 13.28184509 C-2.38430764 8.73698016 -1.34636239 4.4074316 0 0 Z " fill="#FFFFFF" transform="translate(321,76)"/>
<path d="M0 0 C1.79244141 0.01740234 1.79244141 0.01740234 3.62109375 0.03515625 C5.41740234 0.04869141 5.41740234 0.04869141 7.25 0.0625 C8.17683594 0.07410156 9.10367188 0.08570313 10.05859375 0.09765625 C12.48390673 7.18035458 14.90450366 14.26465157 17.32177734 21.35009766 C18.1452268 23.76193006 18.96976832 26.17338989 19.79541016 28.58447266 C20.97974127 32.04362944 22.16018039 35.50409281 23.33984375 38.96484375 C23.711698 40.04821014 24.08355225 41.13157654 24.4666748 42.24777222 C24.80702759 43.24865875 25.14738037 44.24954529 25.49804688 45.28076172 C25.80005005 46.16456512 26.10205322 47.04836853 26.41320801 47.95895386 C27.05859375 50.09765625 27.05859375 50.09765625 27.05859375 52.09765625 C23.09859375 52.09765625 19.13859375 52.09765625 15.05859375 52.09765625 C14.06859375 48.79765625 13.07859375 45.49765625 12.05859375 42.09765625 C6.11859375 42.42765625 0.17859375 42.75765625 -5.94140625 43.09765625 C-6.93140625 46.06765625 -7.92140625 49.03765625 -8.94140625 52.09765625 C-12.90140625 52.09765625 -16.86140625 52.09765625 -20.94140625 52.09765625 C-19.60949087 45.52549277 -17.78093871 39.36675706 -15.5 33.06640625 C-15.17226089 32.14927856 -14.84452179 31.23215088 -14.5068512 30.28723145 C-13.81938803 28.3669998 -13.12932551 26.44769691 -12.43676758 24.52929688 C-11.37267204 21.58037946 -10.31756917 18.62835682 -9.26367188 15.67578125 C-8.59296947 13.80580244 -7.92176378 11.93600404 -7.25 10.06640625 C-6.9333287 9.18110229 -6.61665741 8.29579834 -6.29039001 7.38366699 C-5.99660965 6.57192017 -5.70282928 5.76017334 -5.40014648 4.92382812 C-5.14192612 4.20706909 -4.88370575 3.49031006 -4.61766052 2.75183105 C-3.46165672 -0.07585143 -3.26600012 0.10843294 0 0 Z M3.05859375 16.09765625 C2.4072445 17.65786492 1.76276411 19.22094204 1.12109375 20.78515625 C0.76144531 21.65527344 0.40179688 22.52539062 0.03125 23.421875 C-0.89843745 25.9794489 -1.4830325 28.41978855 -1.94140625 31.09765625 C1.35859375 31.09765625 4.65859375 31.09765625 8.05859375 31.09765625 C7.60761137 29.15843203 7.14753816 27.22132031 6.68359375 25.28515625 C6.42835938 24.20621094 6.173125 23.12726562 5.91015625 22.015625 C5.17126494 18.94232282 5.17126494 18.94232282 3.05859375 16.09765625 Z " fill="#FFFFFF" transform="translate(189.94140625,13.90234375)"/>
<path d="M0 0 C24 0 24 0 32 3 C38.12189078 9.25214377 38.36058604 14.08565407 38.2734375 22.5390625 C37.89455838 27.33458959 37.10882963 29.3331753 34 33 C27.06921069 38.32126952 20.3503623 38.11133816 12 38 C12 42.62 12 47.24 12 52 C8.04 52 4.08 52 0 52 C0 34.84 0 17.68 0 0 Z M12 11 C12 15.95 12 20.9 12 26 C13.5675 26.061875 15.135 26.12375 16.75 26.1875 C17.63171875 26.22230469 18.5134375 26.25710937 19.421875 26.29296875 C22.49134624 25.9441652 23.77552486 25.10396182 26 23 C27.08805146 20.6433774 27.08805146 20.6433774 27 18 C25.78681382 15.25436813 24.68455608 13.53243251 22.3125 11.6875 C18.832118 10.65279184 15.62344134 10.87921862 12 11 Z " fill="#FFFFFF" transform="translate(259,14)"/>
<path d="M0 0 C3.526875 -0.061875 7.05375 -0.12375 10.6875 -0.1875 C12.342052 -0.22846802 12.342052 -0.22846802 14.0300293 -0.27026367 C20.73331426 -0.32728421 24.17614705 0.48990849 29.25 5 C32.52828922 8.74661625 32.32757403 12.74434373 32.29296875 17.4921875 C31.87093796 21.1047711 30.28821834 23.24067788 28 26 C27.34 26.99 26.68 27.98 26 29 C28.31 33.62 30.62 38.24 33 43 C29.04 43 25.08 43 21 43 C20.62488281 42.14535156 20.24976563 41.29070312 19.86328125 40.41015625 C19.35152344 39.30542969 18.83976562 38.20070312 18.3125 37.0625 C17.81363281 35.96035156 17.31476563 34.85820313 16.80078125 33.72265625 C16.20652344 32.82417969 15.61226562 31.92570312 15 31 C13.35 30.67 11.7 30.34 10 30 C10 34.29 10 38.58 10 43 C6.7 43 3.4 43 0 43 C0 28.81 0 14.62 0 0 Z M10 9 C10 12.63 10 16.26 10 20 C11.423125 20.061875 12.84625 20.12375 14.3125 20.1875 C15.11300781 20.22230469 15.91351563 20.25710937 16.73828125 20.29296875 C19.06196257 20.17771269 19.06196257 20.17771269 20.79296875 18.6796875 C22.29785784 16.93023844 22.29785784 16.93023844 22 13.9375 C21.29908393 10.86757399 21.29908393 10.86757399 18.8125 9.625 C15.7857491 8.95238869 13.09118874 8.85622378 10 9 Z " fill="#FFFFFF" transform="translate(169,76)"/>
<path d="M0 0 C3.3 0 6.6 0 10 0 C10.01981934 0.82725586 10.03963867 1.65451172 10.06005859 2.50683594 C10.15531212 6.25487806 10.26499109 10.00236317 10.375 13.75 C10.4059375 15.05195312 10.436875 16.35390625 10.46875 17.6953125 C10.50742187 18.94570312 10.54609375 20.19609375 10.5859375 21.484375 C10.6173584 22.63647461 10.6487793 23.78857422 10.68115234 24.97558594 C10.98841488 27.89010988 11.29862028 29.62914454 13 32 C16.52554633 32.97931842 18.82872001 33.57139752 22.18847656 31.93237305 C24.83432003 29.11002116 24.54489351 26.96505977 24.609375 23.14453125 C24.62591125 22.48289474 24.64244751 21.82125824 24.65948486 21.13957214 C24.70799288 19.03045399 24.72933927 16.92205677 24.75 14.8125 C24.77815777 13.38082305 24.80808495 11.94917972 24.83984375 10.51757812 C24.91374893 7.01187607 24.96330788 3.50631125 25 0 C28.3 0 31.6 0 35 0 C35.09943798 4.5714698 35.17173349 9.14229975 35.21972656 13.71459961 C35.2397487 15.26744565 35.26697517 16.82021719 35.30175781 18.37280273 C35.3506961 20.61460832 35.37306168 22.85541093 35.390625 25.09765625 C35.41127014 25.78336197 35.43191528 26.46906769 35.45318604 27.17555237 C35.45568243 32.63028991 33.99678813 35.60949261 31 40 C25.56997172 44.07252121 19.62608825 44.77249962 13 44 C7.1452633 42.19933406 3.91466029 39.47956135 1 34 C-0.17942085 30.46173745 -0.11289189 27.65851274 -0.09765625 23.92578125 C-0.0962413 23.2419487 -0.09482635 22.55811615 -0.09336853 21.8535614 C-0.08777876 19.67316278 -0.07522822 17.49286749 -0.0625 15.3125 C-0.05748367 13.83268378 -0.052921 12.35286594 -0.04882812 10.87304688 C-0.03781271 7.24866443 -0.02055512 3.6243423 0 0 Z " fill="#FFFFFF" transform="translate(274,76)"/>
<path d="M0 0 C2.73452282 1.98252905 4.56311324 4.05616115 6.5 6.8125 C0.8100304 11.71219605 0.8100304 11.71219605 -2.5 11.8125 C-3.469375 11.3175 -4.43875 10.8225 -5.4375 10.3125 C-8.35480712 8.56804816 -8.35480712 8.56804816 -11.3125 9 C-13.67542751 9.59440093 -13.67542751 9.59440093 -14.5 11.8125 C-12.13358721 14.59515477 -10.20083858 15.38110981 -6.6875 16.25 C-0.90200441 17.86318198 3.07195664 19.67043497 6.5 24.8125 C7.22753399 29.72758428 7.00435931 33.74558607 4.875 38.25 C0.71552981 42.73784941 -2.85583792 43.99191698 -8.875 44.25 C-14.1803957 44.09119904 -18.20869572 42.97291938 -22.5 39.8125 C-25 37.0625 -25 37.0625 -26.5 34.8125 C-25.456766 31.68279801 -24.65735717 30.89642382 -21.6875 29.3125 C-20.1096875 29.065 -20.1096875 29.065 -18.5 28.8125 C-16.78724465 30.08608732 -15.12332967 31.42673077 -13.5 32.8125 C-9.810252 33.61472151 -9.810252 33.61472151 -6.5 33.8125 C-5.84 32.4925 -5.18 31.1725 -4.5 29.8125 C-7.94336548 27.60024704 -11.16564874 26.16237954 -15.0625 24.9375 C-19.53553375 23.33009756 -22.32355046 22.2643286 -24.5 17.8125 C-25.80301185 13.19983805 -26.14368414 9.29448291 -23.9375 4.9375 C-18.03311847 -2.63221991 -8.71727661 -2.95764742 0 0 Z " fill="#FFFFFF" transform="translate(263.5,76.1875)"/>
<path d="M0 0 C9.24 0 18.48 0 28 0 C28 2.97 28 5.94 28 9 C22.06 9 16.12 9 10 9 C10 11.31 10 13.62 10 16 C14.95 16 19.9 16 25 16 C25 19.3 25 22.6 25 26 C20.05 26 15.1 26 10 26 C10 28.31 10 30.62 10 33 C15.94 33 21.88 33 28 33 C28 36.3 28 39.6 28 43 C18.76 43 9.52 43 0 43 C0 28.81 0 14.62 0 0 Z " fill="#FFFFFF" transform="translate(369,76)"/>
<path d="M0 0 C9.24 0 18.48 0 28 0 C28 2.97 28 5.94 28 9 C22.06 9 16.12 9 10 9 C10 11.31 10 13.62 10 16 C14.95 16 19.9 16 25 16 C25 19.3 25 22.6 25 26 C20.05 26 15.1 26 10 26 C10 28.31 10 30.62 10 33 C15.94 33 21.88 33 28 33 C28 36.3 28 39.6 28 43 C18.76 43 9.52 43 0 43 C0 28.81 0 14.62 0 0 Z " fill="#FFFFFF" transform="translate(206,76)"/>
<path d="M0 0 C3.96 0 7.92 0 12 0 C12 17.16 12 34.32 12 52 C8.04 52 4.08 52 0 52 C0 34.84 0 17.68 0 0 Z " fill="#FFFFFF" transform="translate(220,14)"/>
</svg>
