<svg width="27" height="27" viewBox="0 0 27 27" fill="none" xmlns="http://www.w3.org/2000/svg">
<circle cx="13.5" cy="13.5" r="13.5" fill="#EB2222"/>
<path d="M13.5 21.375C9.15064 21.375 5.625 17.8494 5.625 13.5C5.625 9.15064 9.15064 5.625 13.5 5.625C17.8494 5.625 21.375 9.15064 21.375 13.5C21.375 17.8494 17.8494 21.375 13.5 21.375ZM13.5 19.8C15.1709 19.8 16.7733 19.1363 17.9548 17.9548C19.1363 16.7733 19.8 15.1709 19.8 13.5C19.8 11.8291 19.1363 10.2267 17.9548 9.04523C16.7733 7.86375 15.1709 7.2 13.5 7.2C11.8291 7.2 10.2267 7.86375 9.04523 9.04523C7.86375 10.2267 7.2 11.8291 7.2 13.5C7.2 15.1709 7.86375 16.7733 9.04523 17.9548C10.2267 19.1363 11.8291 19.8 13.5 19.8ZM13.5 9.5625C13.7089 9.5625 13.9092 9.64547 14.0568 9.79315C14.2045 9.94084 14.2875 10.1411 14.2875 10.35V14.2875C14.2875 14.4964 14.2045 14.6967 14.0568 14.8443C13.9092 14.992 13.7089 15.075 13.5 15.075C13.2911 15.075 13.0908 14.992 12.9432 14.8443C12.7955 14.6967 12.7125 14.4964 12.7125 14.2875V10.35C12.7125 10.1411 12.7955 9.94084 12.9432 9.79315C13.0908 9.64547 13.2911 9.5625 13.5 9.5625ZM13.5 17.4375C13.2911 17.4375 13.0908 17.3545 12.9432 17.2068C12.7955 17.0592 12.7125 16.8589 12.7125 16.65C12.7125 16.4411 12.7955 16.2408 12.9432 16.0932C13.0908 15.9455 13.2911 15.8625 13.5 15.8625C13.7089 15.8625 13.9092 15.9455 14.0568 16.0932C14.2045 16.2408 14.2875 16.4411 14.2875 16.65C14.2875 16.8589 14.2045 17.0592 14.0568 17.2068C13.9092 17.3545 13.7089 17.4375 13.5 17.4375Z" fill="white"/>
</svg>
