<svg width="12" height="12" viewBox="0 0 12 12" fill="none" xmlns="http://www.w3.org/2000/svg">
<path d="M11.9599 5.91525L10.046 4.40485C10.03 4.39225 10.0107 4.38442 9.99049 4.38225C9.97023 4.38008 9.94977 4.38367 9.93146 4.39259C9.91314 4.40151 9.89771 4.41541 9.88693 4.4327C9.87615 4.44999 9.87046 4.46997 9.87051 4.49034V5.46078H6.54071V2.13099H7.51265C7.60265 2.13099 7.65364 2.02599 7.59815 1.9555L6.08624 0.0416157C6.07623 0.0286647 6.06339 0.0181795 6.0487 0.0109653C6.03401 0.00375111 6.01786 0 6.0015 0C5.98513 0 5.96898 0.00375111 5.95429 0.0109653C5.9396 0.0181795 5.92676 0.0286647 5.91675 0.0416157L4.40485 1.9555C4.39225 1.97151 4.38442 1.99075 4.38225 2.01101C4.38008 2.03126 4.38367 2.05172 4.39259 2.07004C4.40151 2.08835 4.41541 2.10379 4.4327 2.11456C4.44999 2.12534 4.46997 2.13104 4.49034 2.13099H5.46078V5.46078H2.13099V4.48884C2.13099 4.39885 2.02599 4.34785 1.9555 4.40335L0.0416157 5.91525C0.0286647 5.92526 0.0181794 5.9381 0.0109653 5.95279C0.00375111 5.96748 0 5.98363 0 6C0 6.01636 0.00375111 6.03251 0.0109653 6.0472C0.0181794 6.06189 0.0286647 6.07473 0.0416157 6.08474L1.954 7.59665C2.02449 7.65214 2.12949 7.60265 2.12949 7.51115V6.54071H5.45928V9.87051H4.48734C4.39735 9.87051 4.34635 9.9755 4.40185 10.046L5.91375 11.9584C5.95725 12.0139 6.04124 12.0139 6.08324 11.9584L7.59515 10.046C7.65064 9.9755 7.60115 9.87051 7.50965 9.87051H6.54071V6.54071H9.87051V7.51265C9.87051 7.60265 9.9755 7.65364 10.046 7.59815L11.9584 6.08624C11.9713 6.0761 11.9818 6.06318 11.989 6.04844C11.9962 6.0337 12.0001 6.01753 12.0002 6.00111C12.0004 5.98469 11.9968 5.96845 11.9898 5.95358C11.9828 5.93872 11.9726 5.92562 11.9599 5.91525Z" fill="white"/>
</svg>
